<svg width="1612" height="749" viewBox="0 0 1612 749" fill="none" xmlns="http://www.w3.org/2000/svg">
<mask id="path-1-inside-1_1_5" fill="white">
<path d="M0 0C0 413.661 335.339 749 749 749H863C1276.66 749 1612 413.661 1612 0V0H0V0Z"/>
</mask>
<path d="M0 0C0 413.661 335.339 749 749 749H863C1276.66 749 1612 413.661 1612 0V0H0V0Z" fill="url(#paint0_radial_1_5)" fill-opacity="0.18"/>
<path d="M0 0C0 414.766 336.234 751 751 751H861C1275.77 751 1612 414.766 1612 0C1612 412.557 1276.66 747 863 747H749C335.339 747 0 412.557 0 0ZM0 0M1612 0H0H1612M1612 0M0 0V749V0M0 0M1612 749V0V749" fill="#F382FF" fill-opacity="0.4" mask="url(#path-1-inside-1_1_5)"/>
<rect opacity="0.6" width="1536" height="4" transform="matrix(1 0 0 -1 0 749)" fill="url(#paint1_linear_1_5)"/>
<defs>
<radialGradient id="paint0_radial_1_5" cx="0" cy="0" r="1" gradientUnits="userSpaceOnUse" gradientTransform="translate(788.5 742) rotate(-90.0849) scale(337.5 337.5)">
<stop stop-color="#3A1C71"/>
<stop offset="1" stop-color="#3A1C71" stop-opacity="0"/>
</radialGradient>
<linearGradient id="paint1_linear_1_5" x1="0" y1="2" x2="1536" y2="2" gradientUnits="userSpaceOnUse">
<stop stop-color="#F382FF" stop-opacity="0"/>
<stop offset="0.5" stop-color="#F382FF"/>
<stop offset="1" stop-color="#F382FF" stop-opacity="0"/>
</linearGradient>
</defs>
</svg>
