<svg width="1656" height="712" viewBox="0 0 1656 712" fill="none" xmlns="http://www.w3.org/2000/svg">
<mask id="path-1-inside-1_202_1054" fill="white">
<path d="M60 712C60 391.123 320.123 131 641 131H1015C1335.88 131 1596 391.123 1596 712H60Z"/>
</mask>
<path d="M60 712C60 391.123 320.123 131 641 131H1015C1335.88 131 1596 391.123 1596 712H60Z" fill="url(#paint0_radial_202_1054)"/>
<path d="M60 712C60 390.018 321.018 129 643 129H1013C1334.98 129 1596 390.018 1596 712C1596 392.227 1335.88 133 1015 133H641C320.123 133 60 392.227 60 712ZM60 712M1596 712H60H1596M1596 712M60 712V131V712M60 712M1596 131V712V131" fill="#F382FF" fill-opacity="0.4" mask="url(#path-1-inside-1_202_1054)"/>
<g filter="url(#filter0_d_202_1054)">
<rect x="60" y="80" width="1536" height="499" fill="white" fill-opacity="0.01" shape-rendering="crispEdges"/>
</g>
<rect opacity="0.6" x="60" y="131" width="1536" height="4" fill="url(#paint1_linear_202_1054)"/>
<defs>
<filter id="filter0_d_202_1054" x="0" y="0" width="1656" height="619" filterUnits="userSpaceOnUse" color-interpolation-filters="sRGB">
<feFlood flood-opacity="0" result="BackgroundImageFix"/>
<feColorMatrix in="SourceAlpha" type="matrix" values="0 0 0 0 0 0 0 0 0 0 0 0 0 0 0 0 0 0 127 0" result="hardAlpha"/>
<feMorphology radius="20" operator="erode" in="SourceAlpha" result="effect1_dropShadow_202_1054"/>
<feOffset dy="-20"/>
<feGaussianBlur stdDeviation="40"/>
<feComposite in2="hardAlpha" operator="out"/>
<feColorMatrix type="matrix" values="0 0 0 0 0.952941 0 0 0 0 0.509804 0 0 0 0 1 0 0 0 0.25 0"/>
<feBlend mode="normal" in2="BackgroundImageFix" result="effect1_dropShadow_202_1054"/>
<feBlend mode="normal" in="SourceGraphic" in2="effect1_dropShadow_202_1054" result="shape"/>
</filter>
<radialGradient id="paint0_radial_202_1054" cx="0" cy="0" r="1" gradientUnits="userSpaceOnUse" gradientTransform="translate(828 712) scale(768 581)">
<stop stop-color="#3A1C71"/>
<stop offset="1" stop-color="#3A1C71" stop-opacity="0"/>
</radialGradient>
<linearGradient id="paint1_linear_202_1054" x1="60" y1="133" x2="1596" y2="133" gradientUnits="userSpaceOnUse">
<stop stop-color="#F382FF" stop-opacity="0"/>
<stop offset="0.5" stop-color="#F382FF"/>
<stop offset="1" stop-color="#F382FF" stop-opacity="0"/>
</linearGradient>
</defs>
</svg>
