<svg width="65" height="14" viewBox="0 0 65 14" fill="none" xmlns="http://www.w3.org/2000/svg">
<path d="M1.64829 10.5029H-1.121e-05L3.70365 0.211063H5.49769L9.20135 10.5029H7.55304L4.64338 2.08048H4.56298L1.64829 10.5029ZM1.92469 6.47261H7.27163V7.77919H1.92469V6.47261ZM16.2029 2.78403L13.4038 10.5029H11.7957L8.99154 2.78403H10.6047L12.5595 8.72395H12.6399L14.5897 2.78403H16.2029ZM20.5887 13.5583C19.9756 13.5583 19.448 13.4779 19.0057 13.3171C18.5669 13.1563 18.2084 12.9435 17.9303 12.6789C17.6523 12.4142 17.4445 12.1244 17.3072 11.8095L18.5987 11.2768C18.6892 11.4242 18.8098 11.58 18.9605 11.7442C19.1146 11.9117 19.3223 12.0541 19.5837 12.1713C19.8483 12.2886 20.1884 12.3472 20.6038 12.3472C21.1733 12.3472 21.644 12.2082 22.0159 11.9301C22.3878 11.6554 22.5737 11.2165 22.5737 10.6135V9.09583H22.4782C22.3878 9.25999 22.2571 9.44257 22.0863 9.64359C21.9188 9.8446 21.6876 10.0188 21.3928 10.1662C21.098 10.3136 20.7144 10.3873 20.242 10.3873C19.6322 10.3873 19.0828 10.245 18.5937 9.96018C18.1079 9.67206 17.7226 9.24826 17.4378 8.68878C17.1564 8.12594 17.0157 7.43412 17.0157 6.61332C17.0157 5.79252 17.1548 5.08897 17.4328 4.50269C17.7142 3.9164 18.0995 3.46747 18.5886 3.1559C19.0778 2.84098 19.6322 2.68352 20.252 2.68352C20.7311 2.68352 21.1181 2.76393 21.4129 2.92474C21.7077 3.0822 21.9372 3.26646 22.1013 3.47752C22.2689 3.68858 22.3978 3.87452 22.4883 4.03533H22.5988V2.78403H24.0713V10.6738C24.0713 11.3371 23.9172 11.8815 23.6089 12.307C23.3007 12.7325 22.8836 13.0474 22.3576 13.2518C21.835 13.4561 21.2454 13.5583 20.5887 13.5583ZM20.5736 9.14106C21.0058 9.14106 21.371 9.04055 21.6692 8.83954C21.9707 8.63517 22.1985 8.3437 22.3526 7.96513C22.5101 7.58321 22.5888 7.1259 22.5888 6.59322C22.5888 6.07394 22.5117 5.61663 22.3576 5.22131C22.2035 4.82598 21.9774 4.51776 21.6792 4.29665C21.381 4.07218 21.0125 3.95995 20.5736 3.95995C20.1214 3.95995 19.7445 4.07721 19.4429 4.31172C19.1414 4.54289 18.9136 4.85781 18.7595 5.25648C18.6087 5.65516 18.5334 6.10074 18.5334 6.59322C18.5334 7.0991 18.6104 7.543 18.7645 7.92493C18.9186 8.30685 19.1465 8.60502 19.448 8.81943C19.7528 9.03385 20.1281 9.14106 20.5736 9.14106ZM30.8215 9.22649C30.5468 9.22649 30.3106 9.12933 30.113 8.93502C29.9153 8.73735 29.8165 8.49949 29.8165 8.22142C29.8165 7.9467 29.9153 7.71219 30.113 7.51788C30.3106 7.32021 30.5468 7.22138 30.8215 7.22138C31.0962 7.22138 31.3324 7.32021 31.5301 7.51788C31.7278 7.71219 31.8266 7.9467 31.8266 8.22142C31.8266 8.40568 31.7797 8.57487 31.6859 8.72898C31.5954 8.87974 31.4748 9.00035 31.3241 9.0908C31.1733 9.18126 31.0058 9.22649 30.8215 9.22649ZM30.8215 4.07051C30.5468 4.07051 30.3106 3.97335 30.113 3.77904C29.9153 3.58138 29.8165 3.34351 29.8165 3.06544C29.8165 2.79073 29.9153 2.55621 30.113 2.3619C30.3106 2.16424 30.5468 2.06541 30.8215 2.06541C31.0962 2.06541 31.3324 2.16424 31.5301 2.3619C31.7278 2.55621 31.8266 2.79073 31.8266 3.06544C31.8266 3.24971 31.7797 3.41889 31.6859 3.573C31.5954 3.72376 31.4748 3.84437 31.3241 3.93482C31.1733 4.02528 31.0058 4.07051 30.8215 4.07051ZM41.0418 10.6436C40.3215 10.6436 39.6849 10.5197 39.1321 10.2718C38.5827 10.0238 38.1522 9.68211 37.8406 9.24659C37.5291 8.81106 37.375 8.31523 37.3783 7.75909C37.375 7.32356 37.4637 6.92321 37.6447 6.55804C37.8289 6.18952 38.0785 5.88297 38.3934 5.63841C38.7083 5.39049 39.0601 5.23303 39.4487 5.16603V5.10572C38.9362 4.98177 38.5258 4.70705 38.2175 4.28157C37.9093 3.85609 37.7569 3.36696 37.7602 2.81418C37.7569 2.28819 37.8959 1.81917 38.1773 1.40709C38.4621 0.991663 38.8524 0.665017 39.3482 0.427152C39.8441 0.189287 40.4086 0.0703541 41.0418 0.0703541C41.6683 0.0703541 42.2277 0.190962 42.7202 0.432177C43.2161 0.670042 43.6064 0.996688 43.8911 1.41211C44.1759 1.82419 44.32 2.29155 44.3233 2.81418C44.32 3.36696 44.1625 3.85609 43.8509 4.28157C43.5394 4.70705 43.134 4.98177 42.6348 5.10572V5.16603C43.0201 5.23303 43.3668 5.39049 43.675 5.63841C43.9866 5.88297 44.2345 6.18952 44.4188 6.55804C44.6064 6.92321 44.7019 7.32356 44.7052 7.75909C44.7019 8.31523 44.5444 8.81106 44.2328 9.24659C43.9213 9.68211 43.4891 10.0238 42.9363 10.2718C42.3869 10.5197 41.7554 10.6436 41.0418 10.6436ZM41.0418 9.37222C41.4672 9.37222 41.8358 9.30187 42.1473 9.16116C42.4589 9.0171 42.7001 8.81776 42.871 8.56314C43.0418 8.30518 43.129 8.00366 43.1323 7.65859C43.129 7.30011 43.0351 6.98352 42.8509 6.7088C42.67 6.43408 42.4237 6.21799 42.1122 6.06053C41.8006 5.90307 41.4438 5.82434 41.0418 5.82434C40.6364 5.82434 40.2762 5.90307 39.9613 6.06053C39.6464 6.21799 39.3985 6.43408 39.2176 6.7088C39.0367 6.98352 38.9479 7.30011 38.9512 7.65859C38.9479 8.00366 39.03 8.30518 39.1975 8.56314C39.3683 8.81776 39.6112 9.0171 39.9261 9.16116C40.2411 9.30187 40.6129 9.37222 41.0418 9.37222ZM41.0418 4.58309C41.3835 4.58309 41.6867 4.51441 41.9514 4.37705C42.216 4.23969 42.4237 4.04873 42.5745 3.80417C42.7286 3.5596 42.8073 3.27316 42.8107 2.94484C42.8073 2.62322 42.7303 2.3418 42.5795 2.10058C42.4321 1.85937 42.2261 1.67343 41.9614 1.54277C41.6967 1.40876 41.3902 1.34176 41.0418 1.34176C40.6866 1.34176 40.3751 1.40876 40.1071 1.54277C39.8424 1.67343 39.6364 1.85937 39.4889 2.10058C39.3415 2.3418 39.2695 2.62322 39.2729 2.94484C39.2695 3.27316 39.3432 3.5596 39.494 3.80417C39.6447 4.04873 39.8524 4.23969 40.1171 4.37705C40.3851 4.51441 40.6933 4.58309 41.0418 4.58309ZM49.9831 10.6436C49.2628 10.6436 48.6262 10.5197 48.0734 10.2718C47.524 10.0238 47.0935 9.68211 46.7819 9.24659C46.4704 8.81106 46.3163 8.31523 46.3196 7.75909C46.3163 7.32356 46.405 6.92321 46.586 6.55804C46.7702 6.18952 47.0198 5.88297 47.3347 5.63841C47.6496 5.39049 48.0014 5.23303 48.39 5.16603V5.10572C47.8775 4.98177 47.4671 4.70705 47.1588 4.28157C46.8506 3.85609 46.6982 3.36696 46.7015 2.81418C46.6982 2.28819 46.8372 1.81917 47.1186 1.40709C47.4034 0.991663 47.7937 0.665017 48.2895 0.427152C48.7854 0.189287 49.3499 0.0703541 49.9831 0.0703541C50.6096 0.0703541 51.169 0.190962 51.6615 0.432177C52.1574 0.670042 52.5477 0.996688 52.8324 1.41211C53.1172 1.82419 53.2613 2.29155 53.2646 2.81418C53.2613 3.36696 53.1038 3.85609 52.7922 4.28157C52.4807 4.70705 52.0753 4.98177 51.5761 5.10572V5.16603C51.9614 5.23303 52.3081 5.39049 52.6163 5.63841C52.9279 5.88297 53.1758 6.18952 53.3601 6.55804C53.5477 6.92321 53.6432 7.32356 53.6465 7.75909C53.6432 8.31523 53.4857 8.81106 53.1741 9.24659C52.8626 9.68211 52.4304 10.0238 51.8776 10.2718C51.3282 10.5197 50.6967 10.6436 49.9831 10.6436ZM49.9831 9.37222C50.4085 9.37222 50.7771 9.30187 51.0886 9.16116C51.4002 9.0171 51.6414 8.81776 51.8123 8.56314C51.9831 8.30518 52.0703 8.00366 52.0736 7.65859C52.0703 7.30011 51.9764 6.98352 51.7922 6.7088C51.6113 6.43408 51.365 6.21799 51.0535 6.06053C50.7419 5.90307 50.3851 5.82434 49.9831 5.82434C49.5777 5.82434 49.2175 5.90307 48.9026 6.06053C48.5877 6.21799 48.3398 6.43408 48.1589 6.7088C47.978 6.98352 47.8892 7.30011 47.8925 7.65859C47.8892 8.00366 47.9713 8.30518 48.1388 8.56314C48.3096 8.81776 48.5525 9.0171 48.8674 9.16116C49.1824 9.30187 49.5542 9.37222 49.9831 9.37222ZM49.9831 4.58309C50.3248 4.58309 50.628 4.51441 50.8927 4.37705C51.1573 4.23969 51.365 4.04873 51.5158 3.80417C51.6699 3.5596 51.7486 3.27316 51.752 2.94484C51.7486 2.62322 51.6716 2.3418 51.5208 2.10058C51.3734 1.85937 51.1674 1.67343 50.9027 1.54277C50.638 1.40876 50.3315 1.34176 49.9831 1.34176C49.6279 1.34176 49.3164 1.40876 49.0484 1.54277C48.7837 1.67343 48.5777 1.85937 48.4302 2.10058C48.2828 2.3418 48.2108 2.62322 48.2142 2.94484C48.2108 3.27316 48.2845 3.5596 48.4353 3.80417C48.586 4.04873 48.7937 4.23969 49.0584 4.37705C49.3264 4.51441 49.6346 4.58309 49.9831 4.58309ZM60.8189 8.57319V8.03046C60.8189 7.64184 60.8993 7.28671 61.0601 6.96509C61.2243 6.64012 61.4622 6.38048 61.7737 6.18617C62.0886 5.9885 62.4689 5.88967 62.9145 5.88967C63.3701 5.88967 63.752 5.98683 64.0602 6.18114C64.3685 6.37545 64.6013 6.6351 64.7588 6.96007C64.9196 7.28504 65 7.64184 65 8.03046V8.57319C65 8.96182 64.9196 9.31862 64.7588 9.64359C64.598 9.96521 64.3618 10.2248 64.0502 10.4225C63.742 10.6168 63.3634 10.714 62.9145 10.714C62.4622 10.714 62.0803 10.6168 61.7687 10.4225C61.4571 10.2248 61.2209 9.96521 61.0601 9.64359C60.8993 9.31862 60.8189 8.96182 60.8189 8.57319ZM61.9898 8.03046V8.57319C61.9898 8.86131 62.0585 9.12263 62.1958 9.35714C62.3332 9.59166 62.5727 9.70892 62.9145 9.70892C63.2528 9.70892 63.489 9.59166 63.623 9.35714C63.757 9.12263 63.8241 8.86131 63.8241 8.57319V8.03046C63.8241 7.74234 63.7587 7.48102 63.6281 7.24651C63.5008 7.012 63.2629 6.89474 62.9145 6.89474C62.5794 6.89474 62.3416 7.012 62.2009 7.24651C62.0602 7.48102 61.9898 7.74234 61.9898 8.03046ZM55.6428 2.68352V2.14079C55.6428 1.75216 55.7232 1.39536 55.884 1.07039C56.0482 0.745422 56.2861 0.485781 56.5976 0.291468C56.9126 0.097156 57.2928 0 57.7384 0C58.194 0 58.5759 0.097156 58.8842 0.291468C59.1924 0.485781 59.4252 0.745422 59.5827 1.07039C59.7401 1.39536 59.8189 1.75216 59.8189 2.14079V2.68352C59.8189 3.07215 59.7385 3.42894 59.5777 3.75391C59.4202 4.07553 59.1857 4.33518 58.8741 4.53284C58.5659 4.72715 58.1873 4.82431 57.7384 4.82431C57.2828 4.82431 56.8992 4.72715 56.5876 4.53284C56.2794 4.33518 56.0449 4.07553 55.884 3.75391C55.7232 3.42894 55.6428 3.07215 55.6428 2.68352ZM56.8188 2.14079V2.68352C56.8188 2.97164 56.8858 3.23296 57.0198 3.46747C57.1571 3.70198 57.3967 3.81924 57.7384 3.81924C58.0734 3.81924 58.3079 3.70198 58.4419 3.46747C58.5793 3.23296 58.648 2.97164 58.648 2.68352V2.14079C58.648 1.85267 58.5826 1.59135 58.452 1.35684C58.3213 1.12232 58.0835 1.00506 57.7384 1.00506C57.4034 1.00506 57.1655 1.12232 57.0248 1.35684C56.8874 1.59135 56.8188 1.85267 56.8188 2.14079ZM56.1202 10.5029L63.1959 0.211063H64.3969L57.3213 10.5029H56.1202Z" fill="white"/>
</svg>
