<svg width="1656" height="520" viewBox="0 0 1656 520" fill="none" xmlns="http://www.w3.org/2000/svg">
<mask id="path-1-inside-1_432_2" fill="white">
<path d="M60 480C60 259.086 239.086 80 460 80H1196C1416.91 80 1596 259.086 1596 480H60Z"/>
</mask>
<path d="M60 480C60 259.086 239.086 80 460 80H1196C1416.91 80 1596 259.086 1596 480H60Z" fill="url(#paint0_radial_432_2)"/>
<path d="M60 480C60 257.982 239.982 78 462 78H1194C1416.02 78 1596 257.982 1596 480C1596 260.191 1416.91 82 1196 82H460C239.086 82 60 260.191 60 480ZM60 480M1596 480H60H1596M1596 480M60 480V80V480M60 480M1596 80V480V80" fill="#F382FF" fill-opacity="0.4" mask="url(#path-1-inside-1_432_2)"/>
<g filter="url(#filter0_d_432_2)">
<rect x="60" y="80" width="1536" height="400" fill="white" fill-opacity="0.01" shape-rendering="crispEdges"/>
</g>
<rect opacity="0.6" x="60" y="80" width="1536" height="4" fill="url(#paint1_linear_432_2)"/>
<defs>
<filter id="filter0_d_432_2" x="0" y="0" width="1656" height="520" filterUnits="userSpaceOnUse" color-interpolation-filters="sRGB">
<feFlood flood-opacity="0" result="BackgroundImageFix"/>
<feColorMatrix in="SourceAlpha" type="matrix" values="0 0 0 0 0 0 0 0 0 0 0 0 0 0 0 0 0 0 127 0" result="hardAlpha"/>
<feMorphology radius="20" operator="erode" in="SourceAlpha" result="effect1_dropShadow_432_2"/>
<feOffset dy="-20"/>
<feGaussianBlur stdDeviation="40"/>
<feComposite in2="hardAlpha" operator="out"/>
<feColorMatrix type="matrix" values="0 0 0 0 0.952941 0 0 0 0 0.509804 0 0 0 0 1 0 0 0 0.25 0"/>
<feBlend mode="normal" in2="BackgroundImageFix" result="effect1_dropShadow_432_2"/>
<feBlend mode="normal" in="SourceGraphic" in2="effect1_dropShadow_432_2" result="shape"/>
</filter>
<radialGradient id="paint0_radial_432_2" cx="0" cy="0" r="1" gradientUnits="userSpaceOnUse" gradientTransform="translate(828 480) scale(768 400)">
<stop stop-color="#3A1C71"/>
<stop offset="1" stop-color="#3A1C71" stop-opacity="0"/>
</radialGradient>
<linearGradient id="paint1_linear_432_2" x1="60" y1="82" x2="1596" y2="82" gradientUnits="userSpaceOnUse">
<stop stop-color="#F382FF" stop-opacity="0"/>
<stop offset="0.5" stop-color="#F382FF"/>
<stop offset="1" stop-color="#F382FF" stop-opacity="0"/>
</linearGradient>
</defs>
</svg>
